<svg id="visual" viewBox="0 0 900 600" width="900" height="600" xmlns="http://www.w3.org/2000/svg" version="1.1">
    <path d="M0 508L12.5 494.5C25 481 50 454 75 440.8C100 427.7 125 428.3 150 443C175 457.7 200 486.3 225 493.5C250 500.7 275 486.3 300 466.8C325 447.3 350 422.7 375 418.3C400 414 425 430 450 429.7C475 429.3 500 412.7 525 406.8C550 401 575 406 600 410.2C625 414.3 650 417.7 675 428C700 438.3 725 455.7 750 449.3C775 443 800 413 825 409.3C850 405.7 875 428.3 887.5 439.7L900 451L900 601L887.5 601C875 601 850 601 825 601C800 601 775 601 750 601C725 601 700 601 675 601C650 601 625 601 600 601C575 601 550 601 525 601C500 601 475 601 450 601C425 601 400 601 375 601C350 601 325 601 300 601C275 601 250 601 225 601C200 601 175 601 150 601C125 601 100 601 75 601C50 601 25 601 12.5 601L0 601Z"
          fill="#0066FF" stroke-linecap="round" stroke-linejoin="miter"/>
</svg>