<svg id="visual"   width="900" height="450"
     xmlns="http://www.w3.org/2000/svg">
    <defs>
        <linearGradient id="a" x1="50%" x2="50%" y1="-10.959%" y2="100%">
            <stop stop-color="#57BBC1" stop-opacity=".25" offset="0%"/>
            <stop stop-color="#4025c7" offset="100%"/>
        </linearGradient>
    </defs>
    <path d="M0 380L12.5 370C25 360 50 340 75 330.2C100 320.3 125 320.7 150 331.7C175 342.7 200 364.3 225 369.8C250 375.3 275 364.7 300 350.2C325 335.7 350 317.3 375 314C400 310.7 425 322.3 450 322C475 321.7 500 309.3 525 305C550 300.7 575 304.3 600 307.3C625 310.3 650 312.7 675 320.5C700 328.3 725 341.7 750 337C775 332.3 800 309.7 825 306.8C850 304 875 321 887.5 329.5L900 338L900 451L887.5 451C875 451 850 451 825 451C800 451 775 451 750 451C725 451 700 451 675 451C650 451 625 451 600 451C575 451 550 451 525 451C500 451 475 451 450 451C425 451 400 451 375 451C350 451 325 451 300 451C275 451 250 451 225 451C200 451 175 451 150 451C125 451 100 451 75 451C50 451 25 451 12.5 451L0 451Z"
          fill="url(#a)"/>
</svg>